<svg id="svg" xmlns="http://www.w3.org/2000/svg" xmlns:xlink="http://www.w3.org/1999/xlink" width="400" height="400" viewBox="0, 0, 400,400"><g id="svgg"><path id="path0" d="M303.302 21.608 C 296.511 22.222,291.052 25.412,284.113 32.820 C 281.116 36.020,281.524 35.865,275.680 36.017 C 269.978 36.166,265.332 36.555,262.341 37.135 C 259.915 37.604,258.889 37.279,256.902 35.413 C 251.565 30.399,241.470 25.979,238.469 27.343 C 236.155 28.394,233.008 36.234,232.702 41.709 C 232.540 44.592,232.111 45.232,229.440 46.564 C 225.930 48.314,215.158 54.697,213.537 55.987 C 210.188 58.651,208.051 62.000,207.197 65.920 C 206.272 70.167,206.280 70.153,202.417 73.406 C 176.996 94.811,177.658 94.199,177.699 96.240 C 177.726 97.581,179.035 101.029,179.946 102.160 C 182.478 105.303,183.001 107.123,183.192 113.440 C 183.393 120.060,184.073 122.113,187.186 125.497 C 189.292 127.785,189.474 128.286,189.617 132.154 C 189.896 139.726,192.867 143.937,199.120 145.622 C 203.262 146.738,206.123 146.127,213.440 142.563 C 220.388 139.179,224.834 137.428,229.254 136.337 C 235.416 134.815,235.349 134.763,233.425 139.567 C 226.331 157.278,215.091 171.339,197.520 184.480 C 192.394 188.315,187.223 191.785,174.400 200.000 C 137.498 223.641,126.819 235.738,126.287 254.498 C 125.522 281.451,146.020 307.422,176.892 318.614 C 184.507 321.374,199.634 325.181,200.565 324.571 C 201.330 324.070,200.934 323.654,197.439 321.280 C 166.060 299.961,150.717 272.458,154.734 244.725 C 156.116 235.183,158.989 227.411,163.709 220.447 C 165.485 217.826,165.521 217.852,164.802 221.243 C 162.360 232.766,162.476 244.521,165.138 255.120 C 172.663 285.082,191.155 308.588,220.438 325.416 C 226.913 329.137,231.668 331.233,243.360 335.522 C 246.044 336.506,249.944 337.989,252.026 338.816 C 256.186 340.468,255.979 340.407,256.391 340.107 C 256.775 339.825,256.692 339.696,254.009 336.400 C 246.443 327.107,238.864 318.914,229.268 309.659 C 207.252 288.425,198.504 277.138,192.504 262.225 C 186.231 246.634,185.526 227.813,190.787 216.400 L 191.303 215.280 191.409 217.840 C 192.166 236.255,201.754 253.954,224.845 279.561 C 239.179 295.457,245.436 303.801,253.333 317.553 C 263.313 334.933,270.070 343.159,279.586 349.514 C 285.478 353.448,290.267 354.959,298.640 355.525 C 301.796 355.738,323.359 355.733,323.922 355.519 L 324.342 355.360 323.992 354.869 C 323.800 354.599,323.237 354.121,322.742 353.806 C 313.858 348.159,309.729 344.193,304.374 336.160 C 290.299 315.047,286.141 290.872,292.005 264.240 C 293.815 256.021,297.407 247.341,302.681 238.443 C 304.064 236.109,303.907 235.953,299.920 235.684 C 273.586 233.907,246.795 219.094,235.133 199.861 C 230.159 191.659,227.839 180.743,229.294 172.389 L 229.485 171.290 230.011 173.365 C 234.955 192.854,252.843 208.708,278.133 216.015 C 279.353 216.368,280.426 216.631,280.518 216.601 C 280.610 216.570,278.137 214.199,275.022 211.332 C 265.250 202.333,260.778 197.529,257.152 192.133 C 256.166 190.666,254.056 187.011,254.144 186.923 C 254.178 186.889,254.879 187.388,255.703 188.031 C 259.533 191.025,263.974 193.641,273.440 198.479 C 282.155 202.933,285.327 204.806,289.485 207.954 C 299.850 215.802,306.303 224.196,308.804 233.085 C 309.370 235.096,309.336 235.040,310.006 235.040 C 311.899 235.040,313.854 224.888,313.135 218.793 C 312.078 209.827,308.046 202.261,300.090 194.314 C 293.557 187.788,289.700 185.137,278.640 179.573 C 268.437 174.439,264.545 171.665,260.492 166.636 C 257.009 162.315,253.455 154.472,254.021 152.358 C 254.113 152.017,254.186 152.055,255.259 153.002 C 258.781 156.111,260.828 157.407,267.277 160.609 C 274.984 164.436,277.350 166.447,283.077 174.040 C 285.980 177.889,286.149 178.080,286.653 178.080 C 287.347 178.080,287.346 178.083,287.107 176.320 C 285.837 166.937,287.915 158.991,294.870 146.640 C 304.449 129.629,307.158 118.526,305.117 104.640 C 304.625 101.297,303.100 95.062,302.663 94.611 C 301.997 93.922,301.640 94.166,301.527 95.387 C 299.980 112.227,294.846 123.975,284.360 134.671 C 281.842 137.240,281.779 137.241,280.088 134.707 C 278.095 131.721,274.123 128.080,272.858 128.080 C 271.616 128.080,271.610 128.103,271.592 132.442 C 271.574 136.801,271.304 138.755,270.302 141.772 L 269.724 143.512 268.582 142.014 C 260.760 131.747,251.110 126.459,237.900 125.200 L 236.841 125.099 237.674 123.459 C 239.521 119.824,240.614 113.748,240.032 110.347 C 239.863 109.356,238.758 109.417,238.309 110.444 C 237.501 112.292,234.722 115.834,232.124 118.328 C 218.629 131.282,196.513 128.023,193.839 112.687 C 193.186 108.946,193.616 107.823,196.320 106.199 C 201.367 103.168,203.561 101.230,205.655 97.955 C 207.390 95.242,207.290 95.200,199.191 95.200 L 192.622 95.200 192.911 94.700 C 193.070 94.424,193.589 93.866,194.065 93.460 C 194.540 93.053,196.376 91.457,198.145 89.912 C 199.913 88.368,204.744 84.160,208.880 80.561 C 213.016 76.962,217.449 73.070,218.731 71.913 C 222.788 68.251,225.423 66.276,228.304 64.738 C 230.855 63.377,230.630 63.012,226.559 61.907 C 224.931 61.465,223.492 61.064,223.360 61.014 C 222.347 60.635,230.053 58.877,234.160 58.551 C 239.588 58.120,247.807 59.555,251.960 61.660 C 254.149 62.769,254.738 61.611,253.240 59.143 C 251.425 56.152,249.646 54.239,246.335 51.720 C 245.381 50.994,244.641 50.400,244.691 50.400 C 247.679 50.400,260.116 48.456,265.745 47.108 C 267.013 46.805,268.077 46.584,268.111 46.617 C 268.264 46.771,265.829 48.219,264.284 48.894 C 262.345 49.740,262.333 49.768,263.716 50.161 C 269.482 51.803,281.152 47.110,291.920 38.818 C 301.972 31.077,305.040 30.105,308.741 33.487 C 314.806 39.030,314.847 51.495,308.816 56.171 C 307.545 57.156,307.569 57.197,308.159 55.101 C 309.747 49.456,309.789 45.110,308.293 41.318 C 307.334 38.887,306.843 38.986,301.098 42.771 C 293.609 47.705,285.955 51.987,282.160 53.365 C 280.489 53.971,280.453 54.562,282.040 55.342 C 295.561 61.985,305.400 75.459,310.062 93.717 C 313.558 107.405,312.848 121.622,308.006 134.889 C 307.607 135.984,307.483 136.625,307.732 136.307 C 307.761 136.270,308.363 135.556,309.069 134.720 C 325.567 115.194,329.495 92.873,320.328 70.735 C 319.733 69.298,319.752 69.266,320.739 70.048 C 330.523 77.798,336.769 95.681,334.972 110.800 C 333.382 124.185,329.252 131.496,315.360 145.520 C 306.871 154.090,304.816 156.965,302.728 163.200 C 299.783 171.993,300.885 184.131,305.408 192.705 C 306.856 195.450,307.200 195.420,307.507 192.522 C 308.570 182.503,311.254 176.610,318.092 169.288 C 328.767 157.855,331.267 154.682,334.674 148.245 L 335.862 146.000 335.762 147.600 C 335.233 156.011,333.173 163.324,327.764 176.000 C 323.879 185.103,322.515 189.132,321.534 194.400 C 320.822 198.222,319.824 205.328,319.978 205.482 C 320.425 205.929,320.874 205.507,321.937 203.641 C 324.608 198.952,327.743 194.985,333.600 188.882 C 344.181 177.857,350.030 169.373,353.673 159.770 C 354.768 156.883,354.890 156.950,355.212 160.614 C 356.159 171.405,352.853 185.204,346.522 196.880 C 342.582 204.147,340.314 207.287,328.145 222.320 C 310.230 244.452,302.471 264.191,302.928 286.470 C 303.629 320.674,324.676 351.624,349.600 355.104 C 353.976 355.715,379.043 355.999,379.258 355.440 C 379.484 354.851,379.000 354.532,376.320 353.506 C 354.454 345.131,342.475 319.736,346.250 289.760 C 347.689 278.330,350.650 268.701,357.516 253.120 C 358.194 251.580,359.543 248.380,360.513 246.008 L 362.277 241.697 361.923 241.410 C 361.634 241.176,361.521 241.160,361.304 241.322 C 361.159 241.431,359.708 242.520,358.080 243.741 C 346.829 252.184,336.791 256.815,325.789 258.639 C 323.697 258.985,323.690 258.966,325.475 257.750 C 350.209 240.887,366.194 217.524,369.584 193.280 C 371.782 177.557,369.381 162.736,361.771 145.057 C 360.448 141.981,360.107 140.312,359.924 136.000 C 359.342 122.316,356.605 112.237,349.754 98.548 C 348.867 96.776,348.163 95.306,348.191 95.282 C 348.356 95.137,353.822 98.375,355.772 99.774 C 357.274 100.851,357.271 100.854,356.646 98.977 C 353.349 89.083,339.586 73.172,324.741 62.096 C 320.297 58.779,320.365 58.979,322.222 54.720 C 324.941 48.485,325.183 42.064,322.954 35.254 C 319.910 25.949,312.465 20.780,303.302 21.608 M260.564 55.996 C 260.169 56.432,260.315 57.013,261.175 58.434 C 270.833 74.396,270.206 91.280,259.680 98.703 C 256.547 100.913,253.540 101.963,248.360 102.658 C 245.952 102.981,246.002 102.940,246.946 103.810 C 250.239 106.846,259.278 108.259,264.929 106.621 C 275.065 103.684,279.868 94.121,278.339 79.920 C 278.216 78.776,278.137 77.817,278.163 77.788 C 278.247 77.696,279.679 80.422,280.309 81.875 C 283.557 89.364,283.747 99.237,280.787 106.636 C 278.237 113.006,272.901 118.581,265.224 122.894 C 263.719 123.740,263.875 123.804,266.350 123.362 C 276.994 121.459,284.685 116.429,289.554 108.185 C 299.826 90.790,293.248 68.039,275.440 59.371 C 270.458 56.947,261.536 54.922,260.564 55.996 M242.640 66.838 C 233.744 67.194,228.298 71.664,226.077 80.430 C 225.539 82.557,225.705 82.642,229.600 82.236 C 237.878 81.374,243.213 78.499,246.521 73.120 C 246.926 72.460,247.629 71.452,248.083 70.880 C 249.327 69.310,249.440 69.103,249.440 68.392 C 249.440 66.823,248.483 66.605,242.640 66.838 M256.983 68.777 C 256.819 68.941,256.557 69.607,256.400 70.257 C 254.095 79.784,248.018 86.064,237.382 89.909 C 234.734 90.865,231.840 92.215,231.840 92.493 C 231.840 93.000,233.964 93.615,238.080 94.301 C 244.467 95.365,248.301 95.154,252.404 93.513 C 261.044 90.056,264.551 77.816,259.102 70.132 C 258.004 68.584,257.499 68.261,256.983 68.777 M224.033 92.657 C 221.449 97.372,215.178 103.436,209.360 106.848 C 207.725 107.806,207.520 107.976,207.520 108.377 C 207.520 109.379,208.443 109.600,211.354 109.295 C 219.011 108.493,223.874 103.495,225.306 94.955 C 225.700 92.606,225.618 92.160,224.796 92.160 C 224.412 92.160,224.246 92.268,224.033 92.657 M230.133 100.564 C 224.171 110.098,218.715 114.313,210.021 116.103 C 207.848 116.551,207.794 116.578,207.867 117.221 C 207.999 118.372,214.127 119.255,217.763 118.647 C 226.659 117.160,232.099 109.779,230.968 100.729 C 230.833 99.652,230.717 99.629,230.133 100.564 M92.720 111.691 C 85.479 112.664,79.011 115.828,74.597 120.554 C 66.295 129.443,67.322 143.811,76.506 147.266 C 80.905 148.920,84.508 147.674,88.231 143.211 C 93.825 136.504,104.375 139.307,106.877 148.164 C 108.432 153.672,106.403 159.649,101.200 164.882 C 96.637 169.471,91.804 172.179,78.560 177.568 C 61.990 184.310,54.146 188.949,45.034 197.393 C 26.939 214.161,17.576 242.163,21.688 267.216 C 26.375 295.776,46.319 323.131,74.720 339.953 C 101.510 355.821,126.766 361.180,161.280 358.321 C 169.506 357.640,171.463 357.545,177.440 357.540 C 199.990 357.522,222.563 364.642,234.516 375.543 C 236.724 377.556,237.224 375.512,235.972 369.600 C 233.552 358.176,224.116 347.752,209.622 340.491 C 195.701 333.517,181.705 331.482,159.440 333.193 C 135.638 335.023,128.211 334.815,116.514 331.994 C 93.267 326.388,73.427 313.673,59.830 295.667 C 36.938 265.352,41.604 227.094,70.560 207.681 C 75.294 204.507,78.787 202.804,89.894 198.255 C 109.800 190.101,118.578 183.990,125.537 173.440 C 141.498 149.245,129.093 116.484,102.240 111.910 C 100.439 111.603,94.404 111.464,92.720 111.691 M209.675 192.815 C 211.748 210.528,223.655 229.366,240.080 240.916 C 243.721 243.476,251.001 247.360,252.158 247.360 C 252.255 247.360,251.278 246.226,249.987 244.840 C 243.921 238.330,239.676 232.532,236.308 226.160 L 235.293 224.240 237.207 226.027 C 239.896 228.539,241.207 229.642,247.920 235.037 C 258.599 243.620,259.852 244.835,268.459 254.961 C 270.398 257.242,271.961 259.132,271.933 259.161 C 271.822 259.271,268.135 258.846,265.920 258.468 C 260.614 257.562,254.972 255.679,248.701 252.721 L 246.837 251.842 246.935 252.561 C 247.204 254.524,252.688 261.270,267.355 277.680 C 274.487 285.659,277.992 289.699,281.433 293.904 L 282.926 295.728 282.223 295.618 C 266.576 293.159,249.667 281.161,233.042 260.720 C 211.841 234.652,204.131 212.859,208.914 192.522 C 209.146 191.532,209.360 190.747,209.390 190.777 C 209.419 190.806,209.548 191.723,209.675 192.815 M119.281 246.840 C 118.796 247.417,117.192 249.288,115.626 251.105 C 102.943 265.826,94.560 287.337,94.560 305.165 C 94.560 308.507,94.874 309.039,98.079 311.123 C 106.289 316.464,116.341 320.441,123.972 321.369 C 126.590 321.688,126.549 321.733,125.052 320.141 C 121.654 316.530,119.272 312.592,118.192 308.800 C 117.470 306.268,117.387 306.313,119.326 308.185 C 126.498 315.115,135.548 319.284,146.560 320.733 C 148.712 321.016,157.961 321.246,159.272 321.050 L 159.998 320.941 159.746 320.453 C 159.563 320.099,159.221 319.849,158.507 319.546 C 152.341 316.929,144.608 311.957,138.880 306.926 C 123.613 293.516,116.621 274.811,119.455 254.960 C 119.804 252.516,120.441 249.318,120.724 248.597 C 121.400 246.870,120.341 245.580,119.281 246.840 " stroke="none" fill="#000000" fill-rule="evenodd"></path></g></svg>